<mxfile host="65bd71144e">
    <diagram id="fe0f95df-8578-7ff9-5e9f-db93b6560ab3" name="Strategy">
        <mxGraphModel dx="1047" dy="784" grid="1" gridSize="10" guides="1" tooltips="1" connect="1" arrows="1" fold="1" page="1" pageScale="1" pageWidth="850" pageHeight="1100" background="#ffffff" math="0" shadow="0">
            <root>
                <mxCell id="0"/>
                <mxCell id="1" parent="0"/>
                <mxCell id="46a01054fbe08899-24" style="edgeStyle=orthogonalEdgeStyle;rounded=0;html=1;jettySize=auto;orthogonalLoop=1;endArrow=open;endFill=0;startArrow=diamondThin;startFill=0;startSize=12;endSize=6;" parent="1" source="46a01054fbe08899-1" target="46a01054fbe08899-9" edge="1">
                    <mxGeometry relative="1" as="geometry"/>
                </mxCell>
                <mxCell id="46a01054fbe08899-1" value="Context" style="swimlane;fontStyle=1;align=center;verticalAlign=top;childLayout=stackLayout;horizontal=1;startSize=26;horizontalStack=0;resizeParent=1;resizeParentMax=0;resizeLast=0;collapsible=1;marginBottom=0;" parent="1" vertex="1">
                    <mxGeometry x="120" y="149" width="160" height="52" as="geometry"/>
                </mxCell>
                <mxCell id="46a01054fbe08899-4" value="+ SomeOperation(): void" style="text;strokeColor=none;fillColor=#ffffff;align=left;verticalAlign=top;spacingLeft=4;spacingRight=4;overflow=hidden;rotatable=0;points=[[0,0.5],[1,0.5]];portConstraint=eastwest;" parent="46a01054fbe08899-1" vertex="1">
                    <mxGeometry y="26" width="160" height="26" as="geometry"/>
                </mxCell>
                <mxCell id="46a01054fbe08899-9" value="&lt;p style=&quot;margin: 0px ; margin-top: 4px ; text-align: center&quot;&gt;&lt;i&gt;&amp;lt;&amp;lt;Interface&amp;gt;&amp;gt;&lt;/i&gt;&lt;br&gt;&lt;b&gt;IStrategy&lt;/b&gt;&lt;/p&gt;&lt;hr size=&quot;1&quot;&gt;&lt;p style=&quot;margin: 0px ; margin-left: 4px&quot;&gt;&lt;/p&gt;&lt;p style=&quot;margin: 0px ; margin-left: 4px&quot;&gt;+ ExecuteAlgo(): void&lt;br&gt;&lt;/p&gt;" style="verticalAlign=top;align=left;overflow=fill;fontSize=12;fontFamily=Helvetica;html=1;" parent="1" vertex="1">
                    <mxGeometry x="360" y="140" width="200" height="70" as="geometry"/>
                </mxCell>
                <mxCell id="46a01054fbe08899-23" style="edgeStyle=orthogonalEdgeStyle;rounded=0;html=1;jettySize=auto;orthogonalLoop=1;endArrow=block;endFill=0;endSize=12;" parent="1" source="46a01054fbe08899-10" target="46a01054fbe08899-9" edge="1">
                    <mxGeometry relative="1" as="geometry"/>
                </mxCell>
                <mxCell id="46a01054fbe08899-10" value="ConcreteStrategy1" style="swimlane;fontStyle=0;childLayout=stackLayout;horizontal=1;startSize=26;fillColor=#ffffff;horizontalStack=0;resizeParent=1;resizeParentMax=0;resizeLast=0;collapsible=1;marginBottom=0;" parent="1" vertex="1">
                    <mxGeometry x="300" y="340" width="140" height="52" as="geometry"/>
                </mxCell>
                <mxCell id="46a01054fbe08899-11" value="+ ExecuteAlgo(): void" style="text;strokeColor=none;fillColor=#ffffff;align=left;verticalAlign=top;spacingLeft=4;spacingRight=4;overflow=hidden;rotatable=0;points=[[0,0.5],[1,0.5]];portConstraint=eastwest;" parent="46a01054fbe08899-10" vertex="1">
                    <mxGeometry y="26" width="140" height="26" as="geometry"/>
                </mxCell>
                <mxCell id="46a01054fbe08899-22" style="edgeStyle=orthogonalEdgeStyle;rounded=0;html=1;jettySize=auto;orthogonalLoop=1;endArrow=block;endFill=0;endSize=12;" parent="1" source="46a01054fbe08899-19" target="46a01054fbe08899-9" edge="1">
                    <mxGeometry relative="1" as="geometry"/>
                </mxCell>
                <mxCell id="46a01054fbe08899-19" value="ConcreteStrategy2" style="swimlane;fontStyle=0;childLayout=stackLayout;horizontal=1;startSize=26;fillColor=#ffffff;horizontalStack=0;resizeParent=1;resizeParentMax=0;resizeLast=0;collapsible=1;marginBottom=0;" parent="1" vertex="1">
                    <mxGeometry x="480" y="340" width="140" height="52" as="geometry"/>
                </mxCell>
                <mxCell id="46a01054fbe08899-20" value="+ ExecuteAlgo(): void" style="text;strokeColor=none;fillColor=#ffffff;align=left;verticalAlign=top;spacingLeft=4;spacingRight=4;overflow=hidden;rotatable=0;points=[[0,0.5],[1,0.5]];portConstraint=eastwest;" parent="46a01054fbe08899-19" vertex="1">
                    <mxGeometry y="26" width="140" height="26" as="geometry"/>
                </mxCell>
                <mxCell id="46a01054fbe08899-27" value=":Context" style="shape=umlLifeline;perimeter=lifelinePerimeter;whiteSpace=wrap;html=1;container=1;collapsible=0;recursiveResize=0;outlineConnect=0;fillColor=#ffffff;" parent="1" vertex="1">
                    <mxGeometry x="200" y="440" width="100" height="400" as="geometry"/>
                </mxCell>
                <mxCell id="46a01054fbe08899-32" value="" style="html=1;points=[];perimeter=orthogonalPerimeter;fillColor=#ffffff;" parent="46a01054fbe08899-27" vertex="1">
                    <mxGeometry x="45" y="80" width="10" height="90" as="geometry"/>
                </mxCell>
                <mxCell id="46a01054fbe08899-42" value="" style="html=1;points=[];perimeter=orthogonalPerimeter;fillColor=#ffffff;" parent="46a01054fbe08899-27" vertex="1">
                    <mxGeometry x="45.5" y="260" width="10" height="90" as="geometry"/>
                </mxCell>
                <mxCell id="46a01054fbe08899-43" value="SomeOperation()" style="html=1;verticalAlign=bottom;endArrow=block;entryX=0;entryY=0;" parent="46a01054fbe08899-27" target="46a01054fbe08899-42" edge="1">
                    <mxGeometry relative="1" as="geometry">
                        <mxPoint x="-120" y="260" as="sourcePoint"/>
                    </mxGeometry>
                </mxCell>
                <mxCell id="46a01054fbe08899-44" value="return" style="html=1;verticalAlign=bottom;endArrow=open;dashed=1;endSize=8;exitX=0;exitY=0.95;" parent="46a01054fbe08899-27" source="46a01054fbe08899-42" edge="1">
                    <mxGeometry relative="1" as="geometry">
                        <mxPoint x="-120" y="346" as="targetPoint"/>
                    </mxGeometry>
                </mxCell>
                <mxCell id="46a01054fbe08899-28" value=":ConcreteStrategy1" style="shape=umlLifeline;perimeter=lifelinePerimeter;whiteSpace=wrap;html=1;container=1;collapsible=0;recursiveResize=0;outlineConnect=0;fillColor=#ffffff;" parent="1" vertex="1">
                    <mxGeometry x="350" y="440" width="120" height="400" as="geometry"/>
                </mxCell>
                <mxCell id="46a01054fbe08899-36" value="" style="html=1;points=[];perimeter=orthogonalPerimeter;fillColor=#ffffff;" parent="46a01054fbe08899-28" vertex="1">
                    <mxGeometry x="55" y="100" width="10" height="40" as="geometry"/>
                </mxCell>
                <mxCell id="46a01054fbe08899-29" value=":ConcreteStrategy2" style="shape=umlLifeline;perimeter=lifelinePerimeter;whiteSpace=wrap;html=1;container=1;collapsible=0;recursiveResize=0;outlineConnect=0;fillColor=#ffffff;" parent="1" vertex="1">
                    <mxGeometry x="490" y="440" width="120" height="400" as="geometry"/>
                </mxCell>
                <mxCell id="46a01054fbe08899-45" value="" style="html=1;points=[];perimeter=orthogonalPerimeter;fillColor=#ffffff;" parent="46a01054fbe08899-29" vertex="1">
                    <mxGeometry x="55.5" y="285" width="10" height="40" as="geometry"/>
                </mxCell>
                <mxCell id="46a01054fbe08899-30" value="" style="shape=umlLifeline;participant=umlActor;perimeter=lifelinePerimeter;whiteSpace=wrap;html=1;container=1;collapsible=0;recursiveResize=0;verticalAlign=top;spacingTop=36;labelBackgroundColor=#ffffff;outlineConnect=0;fillColor=#ffffff;" parent="1" vertex="1">
                    <mxGeometry x="70" y="440" width="20" height="400" as="geometry"/>
                </mxCell>
                <mxCell id="46a01054fbe08899-33" value="SomeOperation()" style="html=1;verticalAlign=bottom;endArrow=block;entryX=0;entryY=0;" parent="1" source="46a01054fbe08899-30" target="46a01054fbe08899-32" edge="1">
                    <mxGeometry relative="1" as="geometry">
                        <mxPoint x="175" y="520" as="sourcePoint"/>
                    </mxGeometry>
                </mxCell>
                <mxCell id="46a01054fbe08899-34" value="return" style="html=1;verticalAlign=bottom;endArrow=open;dashed=1;endSize=8;exitX=0;exitY=0.95;" parent="1" source="46a01054fbe08899-32" target="46a01054fbe08899-30" edge="1">
                    <mxGeometry relative="1" as="geometry">
                        <mxPoint x="80" y="596" as="targetPoint"/>
                    </mxGeometry>
                </mxCell>
                <mxCell id="46a01054fbe08899-37" value="ExecuteAlgo()" style="html=1;verticalAlign=bottom;endArrow=block;entryX=0;entryY=0;" parent="1" source="46a01054fbe08899-32" target="46a01054fbe08899-36" edge="1">
                    <mxGeometry relative="1" as="geometry">
                        <mxPoint x="260" y="540" as="sourcePoint"/>
                    </mxGeometry>
                </mxCell>
                <mxCell id="46a01054fbe08899-38" value="return" style="html=1;verticalAlign=bottom;endArrow=open;dashed=1;endSize=8;exitX=0;exitY=0.95;" parent="1" source="46a01054fbe08899-36" target="46a01054fbe08899-32" edge="1">
                    <mxGeometry relative="1" as="geometry">
                        <mxPoint x="365" y="616" as="targetPoint"/>
                    </mxGeometry>
                </mxCell>
                <mxCell id="46a01054fbe08899-46" value="ExecuteAlgo()" style="html=1;verticalAlign=bottom;endArrow=block;entryX=0;entryY=0;" parent="1" source="46a01054fbe08899-42" target="46a01054fbe08899-45" edge="1">
                    <mxGeometry relative="1" as="geometry">
                        <mxPoint x="270.5" y="725" as="sourcePoint"/>
                    </mxGeometry>
                </mxCell>
                <mxCell id="46a01054fbe08899-47" value="return" style="html=1;verticalAlign=bottom;endArrow=open;dashed=1;endSize=8;exitX=0;exitY=0.95;" parent="1" source="46a01054fbe08899-45" target="46a01054fbe08899-42" edge="1">
                    <mxGeometry relative="1" as="geometry">
                        <mxPoint x="270.5" y="763" as="targetPoint"/>
                    </mxGeometry>
                </mxCell>
                <mxCell id="46a01054fbe08899-48" value="" style="shape=crossbar;whiteSpace=wrap;html=1;rounded=1;fillColor=#dae8fc;strokeColor=#6c8ebf;" parent="1" vertex="1">
                    <mxGeometry x="70" y="640" width="540" height="20" as="geometry"/>
                </mxCell>
                <mxCell id="46a01054fbe08899-49" value="OR&lt;br&gt;" style="text;html=1;resizable=0;points=[];autosize=1;align=center;verticalAlign=top;spacingTop=-4;fillColor=#dae8fc;strokeColor=#6c8ebf;" parent="1" vertex="1">
                    <mxGeometry x="330" y="630" width="30" height="20" as="geometry"/>
                </mxCell>
            </root>
        </mxGraphModel>
    </diagram>
    <diagram id="69f8f34a-8516-3da5-c032-b171a3a55cab" name="Strategy Sequence">
        <mxGraphModel dx="1186" dy="661" grid="1" gridSize="10" guides="1" tooltips="1" connect="1" arrows="1" fold="1" page="1" pageScale="1" pageWidth="850" pageHeight="1100" background="#ffffff" math="0" shadow="0">
            <root>
                <mxCell id="0"/>
                <mxCell id="1" parent="0"/>
                <mxCell id="2" value=":Program" style="shape=umlLifeline;perimeter=lifelinePerimeter;whiteSpace=wrap;html=1;container=1;collapsible=0;recursiveResize=0;outlineConnect=0;" vertex="1" parent="1">
                    <mxGeometry x="40" y="80" width="100" height="300" as="geometry"/>
                </mxCell>
                <mxCell id="9" value="" style="html=1;points=[];perimeter=orthogonalPerimeter;" vertex="1" parent="2">
                    <mxGeometry x="45" y="60" width="10" height="230" as="geometry"/>
                </mxCell>
                <mxCell id="3" value=":SortableCollection" style="shape=umlLifeline;perimeter=lifelinePerimeter;whiteSpace=wrap;html=1;container=1;collapsible=0;recursiveResize=0;outlineConnect=0;" vertex="1" parent="1">
                    <mxGeometry x="200" y="80" width="120" height="300" as="geometry"/>
                </mxCell>
                <mxCell id="12" value="" style="html=1;points=[];perimeter=orthogonalPerimeter;" vertex="1" parent="3">
                    <mxGeometry x="55" y="100" width="10" height="30" as="geometry"/>
                </mxCell>
                <mxCell id="15" value="" style="html=1;points=[];perimeter=orthogonalPerimeter;" vertex="1" parent="3">
                    <mxGeometry x="55" y="140" width="10" height="100" as="geometry"/>
                </mxCell>
                <mxCell id="21" value="" style="html=1;points=[];perimeter=orthogonalPerimeter;" vertex="1" parent="3">
                    <mxGeometry x="55" y="260" width="10" height="31" as="geometry"/>
                </mxCell>
                <mxCell id="22" value="Items =&amp;nbsp;&lt;span&gt;SortedItems&lt;/span&gt;" style="edgeStyle=orthogonalEdgeStyle;html=1;align=left;spacingLeft=2;endArrow=block;rounded=0;entryX=1;entryY=0;" edge="1" target="21" parent="3" source="15">
                    <mxGeometry relative="1" as="geometry">
                        <mxPoint x="65" y="240" as="sourcePoint"/>
                        <Array as="points">
                            <mxPoint x="85" y="240"/>
                            <mxPoint x="85" y="260"/>
                        </Array>
                    </mxGeometry>
                </mxCell>
                <mxCell id="4" value="strategy&lt;br&gt;:SortAscendingStrategy" style="shape=umlLifeline;perimeter=lifelinePerimeter;whiteSpace=wrap;html=1;container=1;collapsible=0;recursiveResize=0;outlineConnect=0;" vertex="1" parent="1">
                    <mxGeometry x="380" y="120" width="150" height="260" as="geometry"/>
                </mxCell>
                <mxCell id="18" value="" style="html=1;points=[];perimeter=orthogonalPerimeter;" vertex="1" parent="4">
                    <mxGeometry x="70" y="110" width="10" height="60" as="geometry"/>
                </mxCell>
                <mxCell id="7" value="new" style="html=1;verticalAlign=bottom;endArrow=block;" edge="1" parent="1" source="2">
                    <mxGeometry relative="1" as="geometry">
                        <mxPoint x="380" y="140" as="sourcePoint"/>
                        <mxPoint x="380" y="140" as="targetPoint"/>
                    </mxGeometry>
                </mxCell>
                <mxCell id="13" value="SortStrategy = strategy" style="html=1;verticalAlign=bottom;endArrow=block;entryX=0;entryY=0;" edge="1" target="12" parent="1">
                    <mxGeometry relative="1" as="geometry">
                        <mxPoint x="95" y="180" as="sourcePoint"/>
                    </mxGeometry>
                </mxCell>
                <mxCell id="19" value="Sort(Items)" style="html=1;verticalAlign=bottom;endArrow=block;entryX=0;entryY=0;exitX=0.549;exitY=0.503;exitPerimeter=0;" edge="1" target="18" parent="1" source="3">
                    <mxGeometry relative="1" as="geometry">
                        <mxPoint x="270" y="220" as="sourcePoint"/>
                    </mxGeometry>
                </mxCell>
                <mxCell id="20" value="return SortedItems" style="html=1;verticalAlign=bottom;endArrow=open;dashed=1;endSize=8;exitX=0;exitY=0.95;entryX=1.01;entryY=0.671;entryPerimeter=0;" edge="1" source="18" parent="1" target="15">
                    <mxGeometry relative="1" as="geometry">
                        <mxPoint x="280" y="287" as="targetPoint"/>
                    </mxGeometry>
                </mxCell>
                <mxCell id="16" value="Sort()" style="html=1;verticalAlign=bottom;endArrow=block;entryX=0;entryY=0;exitX=1.028;exitY=0.346;exitPerimeter=0;" edge="1" target="15" parent="1" source="9">
                    <mxGeometry relative="1" as="geometry">
                        <mxPoint x="100" y="220" as="sourcePoint"/>
                    </mxGeometry>
                </mxCell>
            </root>
        </mxGraphModel>
    </diagram>
    <diagram id="a0d90a59-ad95-61b6-8cdf-88db7958e744" name="Abstract Factory">
        <mxGraphModel dx="1572" dy="643" grid="1" gridSize="10" guides="1" tooltips="1" connect="1" arrows="1" fold="1" page="0" pageScale="1" pageWidth="850" pageHeight="1100" background="#ffffff" math="0" shadow="0">
            <root>
                <mxCell id="0"/>
                <mxCell id="1" parent="0"/>
                <mxCell id="2" value="&lt;p style=&quot;margin: 0px ; margin-top: 4px ; text-align: center&quot;&gt;&lt;i&gt;&amp;lt;&amp;lt;Interface&amp;gt;&amp;gt;&lt;/i&gt;&lt;br&gt;&lt;b&gt;IVehicleFactory&lt;/b&gt;&lt;/p&gt;&lt;hr size=&quot;1&quot;&gt;&lt;p style=&quot;margin: 0px ; margin-left: 4px&quot;&gt;&lt;span&gt;+ CreateCar(): ICar&lt;/span&gt;&lt;br&gt;&lt;/p&gt;&lt;p style=&quot;margin: 0px ; margin-left: 4px&quot;&gt;+ CreateBike(): IBike&lt;/p&gt;" style="verticalAlign=top;align=left;overflow=fill;fontSize=12;fontFamily=Helvetica;html=1;" vertex="1" parent="1">
                    <mxGeometry x="90" y="175" width="180" height="80" as="geometry"/>
                </mxCell>
                <mxCell id="4" value="«interface»&lt;br&gt;&lt;b&gt;ICar&lt;/b&gt;" style="html=1;" vertex="1" parent="1">
                    <mxGeometry x="460" y="175" width="120" height="50" as="geometry"/>
                </mxCell>
                <mxCell id="5" value="«interface»&lt;br&gt;&lt;b&gt;IBike&lt;/b&gt;" style="html=1;" vertex="1" parent="1">
                    <mxGeometry x="720" y="175" width="120" height="50" as="geometry"/>
                </mxCell>
                <mxCell id="10" style="edgeStyle=elbowEdgeStyle;rounded=0;elbow=vertical;html=1;jettySize=auto;orthogonalLoop=1;endArrow=block;endFill=0;endSize=12;" edge="1" parent="1" source="6" target="2">
                    <mxGeometry relative="1" as="geometry"/>
                </mxCell>
                <mxCell id="6" value="LowGradeVehicleFactory" style="swimlane;fontStyle=0;childLayout=stackLayout;horizontal=1;startSize=26;fillColor=#ffffff;horizontalStack=0;resizeParent=1;resizeParentMax=0;resizeLast=0;collapsible=1;marginBottom=0;" vertex="1" parent="1">
                    <mxGeometry x="200" y="440" width="190" height="78" as="geometry"/>
                </mxCell>
                <mxCell id="7" value="+ CreateCar(): ICar" style="text;strokeColor=none;fillColor=#ffffff;align=left;verticalAlign=top;spacingLeft=4;spacingRight=4;overflow=hidden;rotatable=0;points=[[0,0.5],[1,0.5]];portConstraint=eastwest;" vertex="1" parent="6">
                    <mxGeometry y="26" width="190" height="26" as="geometry"/>
                </mxCell>
                <mxCell id="8" value="+ CreateBike(): IBike" style="text;strokeColor=none;fillColor=#ffffff;align=left;verticalAlign=top;spacingLeft=4;spacingRight=4;overflow=hidden;rotatable=0;points=[[0,0.5],[1,0.5]];portConstraint=eastwest;" vertex="1" parent="6">
                    <mxGeometry y="52" width="190" height="26" as="geometry"/>
                </mxCell>
                <mxCell id="17" style="edgeStyle=orthogonalEdgeStyle;rounded=0;elbow=vertical;html=1;endArrow=block;endFill=0;endSize=12;jettySize=auto;orthogonalLoop=1;entryX=0.5;entryY=1;exitX=0.5;exitY=0;" edge="1" parent="1" source="16" target="4">
                    <mxGeometry relative="1" as="geometry"/>
                </mxCell>
                <mxCell id="16" value="LowGradeCar" style="html=1;" vertex="1" parent="1">
                    <mxGeometry x="400" y="335" width="110" height="50" as="geometry"/>
                </mxCell>
                <mxCell id="19" style="edgeStyle=orthogonalEdgeStyle;rounded=0;elbow=vertical;html=1;endArrow=block;endFill=0;endSize=12;jettySize=auto;orthogonalLoop=1;" edge="1" parent="1" source="18" target="5">
                    <mxGeometry relative="1" as="geometry"/>
                </mxCell>
                <mxCell id="18" value="LowGradeBike" style="html=1;" vertex="1" parent="1">
                    <mxGeometry x="660" y="335" width="110" height="50" as="geometry"/>
                </mxCell>
                <mxCell id="20" style="edgeStyle=orthogonalEdgeStyle;rounded=0;elbow=vertical;html=1;endArrow=open;endFill=0;endSize=12;jettySize=auto;orthogonalLoop=1;dashed=1;exitX=1;exitY=0.5;entryX=0.5;entryY=1;strokeWidth=1;" edge="1" parent="1" source="6" target="16">
                    <mxGeometry relative="1" as="geometry">
                        <Array as="points">
                            <mxPoint x="455" y="479"/>
                        </Array>
                    </mxGeometry>
                </mxCell>
                <mxCell id="22" value="&amp;lt;&amp;lt;Creates&amp;gt;&amp;gt;" style="text;html=1;resizable=0;points=[];align=center;verticalAlign=middle;labelBackgroundColor=#ffffff;" vertex="1" connectable="0" parent="20">
                    <mxGeometry y="-19" relative="1" as="geometry">
                        <mxPoint x="-24" y="-44" as="offset"/>
                    </mxGeometry>
                </mxCell>
                <mxCell id="21" style="edgeStyle=orthogonalEdgeStyle;rounded=0;elbow=vertical;html=1;endArrow=open;endFill=0;endSize=12;jettySize=auto;orthogonalLoop=1;dashed=1;exitX=1;exitY=0.75;jumpStyle=arc;jumpSize=12;" edge="1" parent="1" source="6" target="18">
                    <mxGeometry relative="1" as="geometry"/>
                </mxCell>
                <mxCell id="23" value="&amp;lt;&amp;lt;Creates&amp;gt;&amp;gt;" style="text;html=1;resizable=0;points=[];align=center;verticalAlign=middle;labelBackgroundColor=#ffffff;" vertex="1" connectable="0" parent="21">
                    <mxGeometry x="-0.2428" y="-1" relative="1" as="geometry">
                        <mxPoint x="159" y="-80" as="offset"/>
                    </mxGeometry>
                </mxCell>
                <mxCell id="29" style="edgeStyle=elbowEdgeStyle;rounded=0;elbow=vertical;html=1;endArrow=block;endFill=0;endSize=12;jettySize=auto;orthogonalLoop=1;" edge="1" parent="1" source="24" target="2">
                    <mxGeometry relative="1" as="geometry">
                        <mxPoint x="360" y="380" as="targetPoint"/>
                    </mxGeometry>
                </mxCell>
                <mxCell id="24" value="HighGradeVehicleFactory" style="swimlane;fontStyle=0;childLayout=stackLayout;horizontal=1;startSize=26;fillColor=#ffffff;horizontalStack=0;resizeParent=1;resizeParentMax=0;resizeLast=0;collapsible=1;marginBottom=0;" vertex="1" parent="1">
                    <mxGeometry x="-30" y="440" width="190" height="78" as="geometry"/>
                </mxCell>
                <mxCell id="25" value="+ CreateCar(): ICar" style="text;strokeColor=none;fillColor=#ffffff;align=left;verticalAlign=top;spacingLeft=4;spacingRight=4;overflow=hidden;rotatable=0;points=[[0,0.5],[1,0.5]];portConstraint=eastwest;" vertex="1" parent="24">
                    <mxGeometry y="26" width="190" height="26" as="geometry"/>
                </mxCell>
                <mxCell id="26" value="+ CreateBike(): IBike" style="text;strokeColor=none;fillColor=#ffffff;align=left;verticalAlign=top;spacingLeft=4;spacingRight=4;overflow=hidden;rotatable=0;points=[[0,0.5],[1,0.5]];portConstraint=eastwest;" vertex="1" parent="24">
                    <mxGeometry y="52" width="190" height="26" as="geometry"/>
                </mxCell>
                <mxCell id="35" style="edgeStyle=orthogonalEdgeStyle;rounded=0;html=1;endArrow=block;endFill=0;endSize=12;jettySize=auto;orthogonalLoop=1;exitX=0.5;exitY=0;" edge="1" parent="1" source="27" target="4">
                    <mxGeometry relative="1" as="geometry"/>
                </mxCell>
                <mxCell id="27" value="HighGradeCar" style="html=1;" vertex="1" parent="1">
                    <mxGeometry x="530" y="335" width="110" height="50" as="geometry"/>
                </mxCell>
                <mxCell id="36" style="edgeStyle=orthogonalEdgeStyle;rounded=0;html=1;endArrow=block;endFill=0;endSize=12;jettySize=auto;orthogonalLoop=1;exitX=0.5;exitY=0;" edge="1" parent="1" source="28" target="5">
                    <mxGeometry relative="1" as="geometry"/>
                </mxCell>
                <mxCell id="28" value="HighGradeBike" style="html=1;" vertex="1" parent="1">
                    <mxGeometry x="790" y="335" width="110" height="50" as="geometry"/>
                </mxCell>
                <mxCell id="30" style="edgeStyle=orthogonalEdgeStyle;rounded=0;html=1;endArrow=open;endFill=0;endSize=12;jettySize=auto;orthogonalLoop=1;dashed=1;exitX=1;exitY=0.5;entryX=0.5;entryY=1;jumpStyle=arc;jumpSize=12;" edge="1" parent="1" source="26" target="28">
                    <mxGeometry relative="1" as="geometry">
                        <mxPoint x="110" y="419.5" as="sourcePoint"/>
                        <mxPoint x="240" y="419.5" as="targetPoint"/>
                        <Array as="points">
                            <mxPoint x="170" y="505"/>
                            <mxPoint x="170" y="550"/>
                            <mxPoint x="845" y="550"/>
                        </Array>
                    </mxGeometry>
                </mxCell>
                <mxCell id="31" value="&amp;lt;&amp;lt;Creates&amp;gt;&amp;gt;" style="text;html=1;resizable=0;points=[];align=center;verticalAlign=middle;labelBackgroundColor=#ffffff;" vertex="1" connectable="0" parent="30">
                    <mxGeometry y="-19" relative="1" as="geometry">
                        <mxPoint x="282" y="-149" as="offset"/>
                    </mxGeometry>
                </mxCell>
                <mxCell id="32" style="edgeStyle=orthogonalEdgeStyle;rounded=0;html=1;endArrow=open;endFill=0;endSize=12;jettySize=auto;orthogonalLoop=1;dashed=1;exitX=1;exitY=0.5;jumpStyle=arc;jumpSize=12;entryX=0.5;entryY=1;" edge="1" parent="1" source="25" target="27">
                    <mxGeometry relative="1" as="geometry">
                        <mxPoint x="140" y="520" as="sourcePoint"/>
                        <mxPoint x="270" y="520" as="targetPoint"/>
                        <Array as="points">
                            <mxPoint x="180" y="479"/>
                            <mxPoint x="180" y="530"/>
                            <mxPoint x="585" y="530"/>
                        </Array>
                    </mxGeometry>
                </mxCell>
                <mxCell id="33" value="&amp;lt;&amp;lt;Creates&amp;gt;&amp;gt;" style="text;html=1;resizable=0;points=[];align=center;verticalAlign=middle;labelBackgroundColor=#ffffff;" vertex="1" connectable="0" parent="32">
                    <mxGeometry y="-19" relative="1" as="geometry">
                        <mxPoint x="165" y="-129" as="offset"/>
                    </mxGeometry>
                </mxCell>
            </root>
        </mxGraphModel>
    </diagram>
    <diagram id="024c3a24-c5cd-4413-4fda-a2565cb1df91" name="Abstract Factory Sequence">
        <mxGraphModel dx="1186" dy="661" grid="1" gridSize="10" guides="1" tooltips="1" connect="1" arrows="1" fold="1" page="1" pageScale="1" pageWidth="850" pageHeight="1100" background="#ffffff" math="0" shadow="0">
            <root>
                <mxCell id="0"/>
                <mxCell id="1" parent="0"/>
                <mxCell id="2" value=":Program" style="shape=umlLifeline;perimeter=lifelinePerimeter;whiteSpace=wrap;html=1;container=1;collapsible=0;recursiveResize=0;outlineConnect=0;fillColor=#ffffff;" vertex="1" parent="1">
                    <mxGeometry x="80" y="80" width="100" height="300" as="geometry"/>
                </mxCell>
                <mxCell id="3" value="concreteFactory&lt;br&gt;:HighGradeVehicleFactory&lt;br&gt;" style="shape=umlLifeline;perimeter=lifelinePerimeter;whiteSpace=wrap;html=1;container=1;collapsible=0;recursiveResize=0;outlineConnect=0;fillColor=#ffffff;" vertex="1" parent="1">
                    <mxGeometry x="400" y="80" width="160" height="300" as="geometry"/>
                </mxCell>
                <mxCell id="4" value="abstractFactory&lt;br&gt;:IVehicleFactory" style="shape=umlLifeline;perimeter=lifelinePerimeter;whiteSpace=wrap;html=1;container=1;collapsible=0;recursiveResize=0;outlineConnect=0;fillColor=#ffffff;" vertex="1" parent="1">
                    <mxGeometry x="240" y="80" width="120" height="300" as="geometry"/>
                </mxCell>
            </root>
        </mxGraphModel>
    </diagram>
    <diagram id="e725a75f-7668-f31d-9377-71e1dfa57c7c" name="Singleton">
        <mxGraphModel dx="1172" dy="643" grid="1" gridSize="10" guides="1" tooltips="1" connect="1" arrows="1" fold="1" page="1" pageScale="1" pageWidth="850" pageHeight="1100" background="#ffffff" math="0" shadow="0">
            <root>
                <mxCell id="0"/>
                <mxCell id="1" parent="0"/>
                <mxCell id="2" value="Singleton" style="swimlane;fontStyle=1;align=center;verticalAlign=top;childLayout=stackLayout;horizontal=1;startSize=26;horizontalStack=0;resizeParent=1;resizeParentMax=0;resizeLast=0;collapsible=1;marginBottom=0;fillColor=#ffffff;" vertex="1" parent="1">
                    <mxGeometry x="370" y="147" width="160" height="112" as="geometry"/>
                </mxCell>
                <mxCell id="3" value="- instance: Singleton" style="text;strokeColor=none;fillColor=none;align=left;verticalAlign=top;spacingLeft=4;spacingRight=4;overflow=hidden;rotatable=0;points=[[0,0.5],[1,0.5]];portConstraint=eastwest;fontStyle=4" vertex="1" parent="2">
                    <mxGeometry y="26" width="160" height="26" as="geometry"/>
                </mxCell>
                <mxCell id="4" value="" style="line;strokeWidth=1;fillColor=none;align=left;verticalAlign=middle;spacingTop=-1;spacingLeft=3;spacingRight=3;rotatable=0;labelPosition=right;points=[];portConstraint=eastwest;" vertex="1" parent="2">
                    <mxGeometry y="52" width="160" height="8" as="geometry"/>
                </mxCell>
                <mxCell id="5" value="+ Create(): Singleton" style="text;strokeColor=none;fillColor=none;align=left;verticalAlign=top;spacingLeft=4;spacingRight=4;overflow=hidden;rotatable=0;points=[[0,0.5],[1,0.5]];portConstraint=eastwest;fontStyle=4" vertex="1" parent="2">
                    <mxGeometry y="60" width="160" height="26" as="geometry"/>
                </mxCell>
                <mxCell id="6" value="- Singleton()" style="text;strokeColor=none;fillColor=none;align=left;verticalAlign=top;spacingLeft=4;spacingRight=4;overflow=hidden;rotatable=0;points=[[0,0.5],[1,0.5]];portConstraint=eastwest;" vertex="1" parent="2">
                    <mxGeometry y="86" width="160" height="26" as="geometry"/>
                </mxCell>
            </root>
        </mxGraphModel>
    </diagram>
</mxfile>